<?xml version="1.0" encoding="utf-8"?>
<!-- Generator: Adobe Illustrator 15.0.0, SVG Export Plug-In . SVG Version: 6.00 Build 0)  -->
<!DOCTYPE svg PUBLIC "-//W3C//DTD SVG 1.1//EN" "http://www.w3.org/Graphics/SVG/1.1/DTD/svg11.dtd">
<svg version="1.1" id="Layer_1" xmlns="http://www.w3.org/2000/svg" xmlns:xlink="http://www.w3.org/1999/xlink" x="0px" y="0px"
	 width="205.487px" height="60.356px" viewBox="0 0 205.487 60.356" enable-background="new 0 0 205.487 60.356"
	 xml:space="preserve">
<g>
	<path fill="#FFFFFF" d="M165.064,40.914l0.607-0.829c1.99-2.763,3.316-6.356,3.316-10.06c0-6.079-3.758-11.054-9.451-11.054
		c-7.462,0-13.597,8.125-13.597,15.974c0,5.858,3.481,11.055,9.506,11.055c2.433,0,4.864-0.94,6.909-2.488
		C162.355,43.511,163.241,42.898,165.064,40.914 M203.422,32.402c-0.221-0.11-0.441-0.166-0.662-0.166
		c-0.664,0-1.271,0.387-1.549,0.995c-3.15,6.909-6.854,9.341-9.064,9.341c-1.271,0-1.824-0.773-1.824-1.769
		c0-1.05,2.819-8.125,3.87-10.889c0.663-1.713,0.995-3.206,0.995-4.588c0-4.477-3.482-6.411-6.633-6.411
		c-1.77,0-3.703,0.553-5.473,1.493c-0.166-0.719-0.718-1.382-1.658-1.382c-0.662,0-1.216,0.387-1.492,1.05l-9.506,23.491
		c-0.111,0.221-0.111,0.441-0.111,0.663c0,0.773,0.664,1.658,1.658,1.658c0.664,0,1.271-0.442,1.548-1.051l6.798-16.968l0.166-0.221
		c1.77-3.537,5.473-5.417,8.07-5.417c2.432,0,3.316,1.438,3.316,3.095c0,1.769-2.543,7.794-4.312,12.657
		c-0.387,0.996-0.553,1.935-0.553,2.819c0,2.764,2.101,5.085,5.14,5.085c3.925,0,8.567-3.482,12.105-11.331
		c0.11-0.221,0.165-0.442,0.165-0.663C204.417,33.231,204.031,32.678,203.422,32.402 M159.592,41.412
		c-1.604,0.828-2.709,1.271-4.146,1.271c-3.371,0-6.19-2.764-6.19-7.737c0-6.965,5.638-12.658,10.281-12.658
		c3.592,0,6.135,3.206,6.135,7.738c0,3.427-1.438,6.854-3.593,9.23C159.262,42.039,159.426,41.246,159.592,41.412 M177.611,34.502
		c0.11-0.222,0.165-0.442,0.165-0.663c0-1.77-2.542-2.267-3.15-0.664 M143.535,12.868c1.105,0,1.989-0.884,1.989-2.045
		c0-1.105-0.884-1.99-1.989-1.99c-1.161,0-2.045,0.884-2.045,1.99C141.49,11.983,142.374,12.868,143.535,12.868 M148.262,32.292
		c-0.222-0.11-0.498-0.166-0.719-0.166c-0.607,0-1.217,0.331-1.492,0.94c-2.93,6.355-7.075,9.395-9.673,9.395
		c-1.161,0-1.989-0.441-1.989-2.432c0-2.211,1.823-6.079,4.421-12.657c2.599-6.632,2.487-6.135,2.487-6.577
		c0-0.829-0.607-1.659-1.658-1.659c-1.216,0-1.271,0.387-2.266,2.819c-5.859,14.812-6.301,16.471-6.301,18.073
		c0,3.482,2.211,5.748,5.25,5.748h0.056c4.257,0,9.23-3.979,12.713-11.33c0.11-0.221,0.165-0.442,0.165-0.663
		C149.256,33.175,148.869,32.568,148.262,32.292 M135.053,32.402c-0.221-0.11-0.441-0.166-0.662-0.166
		c-0.664,0-1.271,0.387-1.549,0.995c-3.15,6.909-6.854,9.341-9.064,9.341c-1.271,0-1.824-0.773-1.824-1.769
		c0-1.05,2.819-8.125,3.869-10.889c0.664-1.713,0.996-3.206,0.996-4.588c0-4.477-3.482-6.411-6.633-6.411
		c-1.77,0-3.704,0.553-5.473,1.493c-0.166-0.719-0.719-1.382-1.658-1.382c-0.663,0-1.216,0.387-1.492,1.05l-9.506,23.491
		c-0.111,0.221-0.111,0.441-0.111,0.663c0,0.773,0.664,1.658,1.658,1.658c0.663,0,1.271-0.442,1.547-1.051l6.799-16.968l0.166-0.221
		c1.77-3.537,5.472-5.417,8.07-5.417c2.432,0,3.316,1.438,3.316,3.095c0,1.769-2.543,7.794-4.312,12.657
		c-0.388,0.996-0.553,1.935-0.553,2.819c0,2.764,2.101,5.085,5.14,5.085c3.924,0,8.567-3.482,12.104-11.331
		c0.11-0.221,0.166-0.442,0.166-0.663C136.048,33.231,135.661,32.678,135.053,32.402 M108.412,32.236
		c-0.829-0.332-1.824,0.056-2.211,0.885c-1.492,3.427-3.261,5.803-4.975,7.296c-1.381,1.216-2.818,2.044-4.422,2.044
		c-1.547,0-2.211-1.16-2.211-2.707c0-0.94,0.277-2.211,0.885-3.76c1.438-3.48,5.859-14.591,5.859-14.591
		c0.332-0.829-0.111-1.824-0.939-2.156c-0.885-0.332-1.824,0.111-2.156,0.939c0,0-0.276,0.664-5.141,12.879
		c-1.879,4.587-6.632,10.998-11.109,9.119c-3.205-1.326-2.155-5.582-1.216-7.904c5.251-12.768,5.306-12.878,5.306-12.878
		c0.332-0.829-0.055-1.824-0.884-2.211c-0.829-0.332-1.824,0.055-2.155,0.884c0,0-2.819,6.632-5.361,12.99
		c-1.604,3.924-1.879,9.395,1.934,11.605c3.206,1.88,7.85,1.162,11.994-2.764c0.553,2.433,2.875,3.869,5.195,3.869
		c3.262,0,5.859-1.823,8.181-4.422c1.548-1.768,3.04-4.09,4.256-6.908C109.629,33.618,109.241,32.623,108.412,32.236 M62.315,31.352
		c-0.663,0-1.326-0.055-1.989-0.221c1.989-5.472,5.25-8.346,8.622-8.733c2.377-0.276,2.764,1.326,2.764,2.266
		C71.712,27.704,67.234,31.352,62.315,31.352 M60.492,44.34c1.603,0.939,3.482,1.437,5.416,1.437
		c5.527,0,11.773-3.758,14.868-11.385c0.11-0.222,0.166-0.442,0.166-0.664c0-0.829-0.663-1.658-1.658-1.658
		c-0.663,0-1.271,0.387-1.548,1.051c-2.709,6.467-7.738,9.34-11.828,9.34c-3.593,0-6.577-2.154-6.577-6.521
		c0-0.498,0.056-1.051,0.11-1.603c0.995,0.221,1.935,0.331,2.874,0.331c7.02,0,12.935-5.803,12.935-10.667
		c0-3.206-2.488-5.03-6.136-5.03c-6.08,0-13.1,8.456-13.1,16.968C56.015,39.753,57.729,42.627,60.492,44.34 M38.25,13.906
		c0.562-0.609-0.885-1.492-1.658-1.492c-3.648,0-6.08,6.08-8.291,11.165c-3.372,7.738-6.688,17.632-8.291,21.997
		c-3.316,9.01-6.467,9.895-9.23,9.895c-3.205,0-5.029-1.438-5.969-2.984c-0.277-0.498-0.83-0.773-1.438-0.773
		c-0.885,0-1.658,0.773-1.658,1.657c0,2.93,5.141,5.417,9.064,5.417c6.577,0,9.672-4.09,15.311-20.285
		c2.543-7.406,6.19-16.913,9.064-21.058C35.154,17.443,36.193,16.137,38.25,13.906 M68.289,52.738
		c-0.277-0.275-0.664-0.387-1.051-0.387c-1.216,0-0.998,0.445-2.049,1.275c-2.874,2.211-5.416,2.486-8.069,2.486
		c-10.944,0-10.06-8.291-13.873-16.912c-0.829-1.879-1.989-3.704-3.538-5.141c9.286-1.824,14.814-9.562,14.814-17.355
		c0-7.958-5.805-15.42-17.799-15.42c-11.993,0-19.511,8.401-19.511,16.857c0,3.372,1.271,6.854,3.979,9.562
		c0.277,0.332,0.719,0.498,1.105,0.498c0.939,0,1.714-0.774,1.714-1.658c0-1.05-2.155-3.04-2.764-4.587
		c-0.497-1.216-0.718-2.487-0.718-3.814c0-6.466,5.803-13.542,16.193-13.542c10.502,0,14.481,6.19,14.481,12.104
		c0,6.854-5.472,14.371-15.53,14.371c-0.996,0-1.936-0.167-3.041-0.167c-0.829,0-1.658,0.664-1.658,1.604
		c0,0.884,0.553,1.547,1.382,1.657c9.341,1.438,8.181,11.054,12.491,18.792c1.99,3.594,5.693,6.467,12.271,6.467
		c3.979,0,6.392-0.266,11.39-4.369c0.276-0.332,0.387-0.664,0.387-1.051C68.896,53.512,68.676,53.07,68.289,52.738"/>
	<path fill="#FFFFFF" d="M68.441,11.027c-1.998,0.802-0.389,3.977,1.407,2.923l9.62-4.614c1.913-0.893,0.491-3.938-1.389-2.977
		L68.441,11.027z"/>
</g>
</svg>
