<?xml version="1.0" encoding="utf-8"?>
<!-- Generator: Adobe Illustrator 15.0.0, SVG Export Plug-In . SVG Version: 6.00 Build 0)  -->
<!DOCTYPE svg PUBLIC "-//W3C//DTD SVG 1.1//EN" "http://www.w3.org/Graphics/SVG/1.1/DTD/svg11.dtd">
<svg version="1.1" id="Layer_1" xmlns="http://www.w3.org/2000/svg" xmlns:xlink="http://www.w3.org/1999/xlink" x="0px" y="0px"
	 width="870.128px" height="54.084px" viewBox="0 0 870.128 54.084" enable-background="new 0 0 870.128 54.084"
	 xml:space="preserve">
<g>
	<path fill="#FFFFFF" d="M870.128,52.699V1.092h-9.244v34.94L838.82,1.092h-9.967v51.606h9.235v-35.44l22.358,35.44H870.128z
		 M794.648,26.931c0,4.738-0.151,11.071-3.718,14.789c-2.041,2.175-5.17,3.414-8.156,3.414s-6.116-1.239-8.157-3.414
		c-3.557-3.718-3.708-10.051-3.708-14.789c0-4.725,0.151-11.144,3.708-14.861c2.041-2.175,5.171-3.418,8.157-3.418
		s6.115,1.243,8.156,3.418C794.497,15.788,794.648,22.207,794.648,26.931 M804.178,26.931c0-8.438-0.944-15.369-6.552-20.958
		c-3.932-3.932-9.315-5.831-14.852-5.831s-10.921,1.899-14.853,5.831c-5.606,5.589-6.543,12.521-6.543,20.958
		c0,8.451,0.937,15.288,6.543,20.9c3.932,3.922,9.316,5.816,14.853,5.816s10.92-1.895,14.852-5.816
		C803.233,42.219,804.178,35.382,804.178,26.931 M740.332,37.343c0-8.804-6.481-13.826-14.192-14.923
		c-3.352-0.437-7.934-0.798-11.214-1.311c-3.059-0.508-5.233-2.255-5.233-5.607c0-1.895,0.642-3.209,1.747-4.373
		c2.104-2.18,5.456-2.834,8.362-2.834c2.763,0,6.195,1.021,7.871,2.763c1.239,1.306,2.193,3.276,2.265,5.095h9.592
		c-0.071-4.297-2.184-8.081-5.241-10.983c-3.485-3.28-8.879-5.028-14.406-5.028c-6.044,0-11.723,2.113-15.146,5.465
		c-2.692,2.688-4.502,6.106-4.502,10.18c0,8.603,5.955,13.261,13.086,14.424c3.433,0.58,7.943,0.731,11.438,1.382
		c3.209,0.579,6.125,2.331,6.125,6.115c0,2.479-0.883,3.709-2.042,4.952c-1.979,2.037-5.394,2.768-8.959,2.768
		c-2.986,0-6.481-0.579-8.665-2.768c-1.524-1.529-2.692-3.784-2.692-6.334h-9.601c0,4.877,2.326,9.245,5.375,12.013
		c4.226,3.851,9.976,5.309,15.44,5.309c6.329,0,12.382-1.601,16.305-5.526C738.594,45.572,740.332,42.148,740.332,37.343
		 M675.113,1.092h-9.53v51.606h9.53V1.092z M627.865,34.366h-14.709l7.354-21.77L627.865,34.366z M643.956,52.699L625.824,1.092
		h-10.261l-18.124,51.606h9.459l3.352-9.904h20.53l3.343,9.904H643.956z M575.813,52.699V1.092h-12.009l-13.604,36.764
		l-13.55-36.764h-12.659v51.606h9.094V15.431l13.318,36.536h6.926l13.391-36.09v36.822H575.813z M450.171,42.906
		c-2.255,2.522-5.607,3.245-8.667,3.245c-4.885,0-9.253-2.759-9.253-8.076c0-4.377,2.701-6.125,6.125-8.162
		c4.012,4.373,7.803,8.674,11.796,13.043V42.906z M447.407,13.104c0,4.297-3.423,5.968-6.626,7.72
		c-2.121-2.185-4.885-4.591-4.885-7.943c0-3.565,2.764-5.393,5.759-5.393C444.93,7.488,447.407,9.53,447.407,13.104 M470.327,52.699
		c-3.2-3.41-6.259-6.815-9.521-10.301c2.166-3.414,2.896-7.542,3.119-11.536h5.965V23.66H456.58c0,1.604,0,4.003-0.143,6.32
		c-0.143,2.407-0.445,4.738-1.318,6.347l-8.941-9.752c5.669-3.276,9.743-7.132,9.743-13.836C455.921,4.663,449.154,0,441.655,0
		c-7.8,0-14.13,4.885-14.13,13.033c0,4.805,2.256,7.649,5.536,11.21c-5.456,3.347-9.164,7.778-9.164,14.192
		c0,9.687,7.916,15.649,17.099,15.649c5.314,0,10.494-1.752,14.631-5.384l3.646,3.998H470.327z M371.328,52.699V44.19h-27.377V30.06
		h24.097v-8.438h-24.097V9.601h27.377V1.092h-36.755v51.606H371.328z M306.902,52.699V1.092h-9.244v34.94l-22.063-34.94h-9.967
		v51.606h9.244v-35.44l22.358,35.44H306.902z M237.957,1.092h-9.53v51.606h9.53V1.092z M204.402,37.343
		c0-8.804-6.48-13.826-14.192-14.923c-3.352-0.437-7.934-0.798-11.214-1.311c-3.058-0.508-5.242-2.255-5.242-5.607
		c0-1.895,0.66-3.209,1.748-4.373c2.113-2.18,5.456-2.834,8.371-2.834c2.772,0,6.187,1.021,7.863,2.763
		c1.248,1.306,2.193,3.276,2.273,5.095h9.592c-0.071-4.297-2.184-8.081-5.233-10.983c-3.494-3.28-8.888-5.028-14.424-5.028
		c-6.044,0-11.714,2.113-15.137,5.465c-2.692,2.688-4.502,6.106-4.502,10.18c0,8.603,5.955,13.261,13.087,14.424
		c3.423,0.58,7.934,0.731,11.428,1.382c3.218,0.579,6.125,2.331,6.125,6.115c0,2.479-0.865,3.709-2.033,4.952
		c-1.97,2.037-5.393,2.768-8.968,2.768c-2.986,0-6.472-0.579-8.656-2.768c-1.533-1.529-2.701-3.784-2.701-6.334h-9.601
		c0,4.877,2.336,9.245,5.375,12.013c4.226,3.851,9.984,5.309,15.44,5.309c6.33,0,12.383-1.601,16.305-5.526
		C202.655,45.572,204.402,42.148,204.402,37.343 M139.174,1.092h-9.53v51.606h9.53V1.092z M103.436,32.909V1.092h-9.387v31.669
		c0,7.354-3.352,12.373-10.849,12.373c-7.497,0-10.849-5.019-10.849-12.373V1.092h-9.387v31.816
		c0,12.297,6.909,20.739,20.236,20.739C96.527,53.648,103.436,45.206,103.436,32.909 M40.757,36.255h-9.61
		c-0.223,2.251-1.025,4.079-2.327,5.679c-1.676,2.113-4.591,3.271-7.792,3.271c-2.986,0-5.901-1.234-7.943-3.414
		C9.53,38.075,9.53,31.669,9.53,26.931c0-4.725,0-11.144,3.557-14.861c2.042-2.175,4.957-3.418,7.943-3.418
		c3.201,0,6.116,1.092,7.792,3.205c1.301,1.6,2.104,3.201,2.327,5.46h9.61c-0.437-4.074-1.97-8.152-4.948-11.201
		c-3.869-3.932-9.253-5.973-14.78-5.973c-5.536,0-10.706,1.899-14.638,5.831C0.802,11.562,0,18.494,0,26.931
		c0,8.451,0.802,15.368,6.392,20.976c3.932,3.918,9.102,5.741,14.638,5.741c5.527,0,10.912-2.175,14.78-6.11
		C38.787,44.484,40.321,40.334,40.757,36.255"/>
</g>
</svg>
