<?xml version="1.0" encoding="utf-8"?>
<!-- Generator: Adobe Illustrator 15.0.0, SVG Export Plug-In . SVG Version: 6.00 Build 0)  -->
<!DOCTYPE svg PUBLIC "-//W3C//DTD SVG 1.1//EN" "http://www.w3.org/Graphics/SVG/1.1/DTD/svg11.dtd">
<svg version="1.1" id="Layer_1" xmlns="http://www.w3.org/2000/svg" xmlns:xlink="http://www.w3.org/1999/xlink" x="0px" y="0px"
	 width="226.044px" height="19.086px" viewBox="0 0 226.044 19.086" enable-background="new 0 0 226.044 19.086"
	 xml:space="preserve">
<g>
	<path fill="#FFFFFF" d="M224.833,17.574V1.271h-2.918v11.036l-6.971-11.036h-3.147v16.303h2.917V6.377l7.063,11.196H224.833z M203.514,11.322
		V1.271h-2.964v10.005c0,2.321-1.058,3.908-3.429,3.908c-2.369,0-3.427-1.587-3.427-3.908V1.271h-2.963v10.051
		c0,3.886,2.182,6.551,6.39,6.551C201.333,17.873,203.514,15.208,203.514,11.322 M180.36,9.413c0,1.495-0.023,3.427-1.173,4.576
		c-0.552,0.552-1.356,0.92-2.3,0.92h-3.383V3.936h3.383c0.943,0,1.748,0.368,2.3,0.921C180.336,6.006,180.36,7.915,180.36,9.413
		 M183.37,9.413c0-2.256-0.23-4.671-1.906-6.396c-1.081-1.124-2.713-1.745-4.576-1.745h-6.347v16.303h6.347
		c1.863,0,3.495-0.621,4.576-1.745C183.139,14.103,183.37,11.667,183.37,9.413 M160.031,6.332c0,1.54-0.965,2.414-2.645,2.414
		h-3.958V3.868h3.912C159.02,3.868,160.031,5.017,160.031,6.332 M162.995,17.574l-2.987-6.669c1.794-0.667,2.987-2.39,2.987-4.573
		c0-2.625-1.769-5.061-5.654-5.061h-6.876v16.303h2.987v-6.163h3.613l2.713,6.163H162.995z M142.711,17.574v-2.688h-8.646v-4.464
		h7.611V7.756h-7.611V3.959h8.646V1.271h-11.61v16.303H142.711z M124.272,1.271h-2.99l-3.933,12.439l-3.954-12.439h-3.151
		l5.404,16.303h3.266L124.272,1.271z M94.698,9.228H71.035v2.551h23.663V9.228z M55.282,17.574V14.77h-7.565V1.271h-2.964v16.303
		H55.282z M37.782,4.029V1.271H25.16v2.758h4.829v13.545h2.964V4.029H37.782z M18.188,17.574V1.271h-3.792l-4.3,11.611L5.816,1.271
		H1.817v16.303h2.872V5.802l4.208,11.541h2.188l4.231-11.402v11.633H18.188z"/>
</g>
</svg>
