<?xml version="1.0" encoding="utf-8"?>
<!-- Generator: Adobe Illustrator 15.0.0, SVG Export Plug-In . SVG Version: 6.00 Build 0)  -->
<!DOCTYPE svg PUBLIC "-//W3C//DTD SVG 1.1//EN" "http://www.w3.org/Graphics/SVG/1.1/DTD/svg11.dtd">
<svg version="1.1" id="Layer_1" xmlns="http://www.w3.org/2000/svg" xmlns:xlink="http://www.w3.org/1999/xlink" x="0px" y="0px"
	 width="340.755px" height="52.095px" viewBox="0 0 340.755 52.095" enable-background="new 0 0 340.755 52.095"
	 xml:space="preserve">
<g>
	<polygon fill="#FFFFFF" points="23.414,38.77 11.803,2.229 2.546,2.229 18.417,50.116 28.016,50.116 43.754,2.229 34.971,2.229 	
		"/>
	<polygon fill="#FFFFFF" points="63.82,50.116 97.915,50.116 97.915,42.214 72.524,42.214 72.524,29.104 94.877,29.104 
		94.877,21.269 72.524,21.269 72.524,10.118 97.915,10.118 97.915,2.229 63.82,2.229 	"/>
	<path fill="#FFFFFF" d="M157.505,17.087c0-7.705-5.194-14.858-16.607-14.858h-20.21v47.888h8.784V32.011h10.611l7.968,18.105h9.454
		l-8.784-19.592C153.994,28.565,157.505,23.503,157.505,17.087z M141.029,24.174h-11.637V9.855h11.505
		c4.931,0,7.902,3.366,7.902,7.232C148.8,21.61,145.96,24.174,141.029,24.174z"/>
	<path fill="#FFFFFF" d="M267.823,31.616c0,6.824-3.116,11.466-10.085,11.466c-6.955,0-10.059-4.642-10.059-11.466V2.229h-8.705
		v29.52c0,11.413,6.404,19.249,18.764,19.249c12.373,0,18.79-7.836,18.79-19.249V2.229h-8.705V31.616z"/>
	<polygon fill="#FFFFFF" points="330.569,2.229 330.569,34.641 310.096,2.229 300.853,2.229 300.853,50.116 309.425,50.116 
		309.425,17.231 330.174,50.116 339.142,50.116 339.142,2.229 	"/>
	<path fill="#FFFFFF" d="M198.305,2.229h-18.645v47.888h18.645c5.47,0,10.27-1.827,13.438-5.128
		c4.931-5.062,5.602-12.215,5.602-18.855c0-6.627-0.671-13.714-5.602-18.777C208.575,4.043,203.775,2.229,198.305,2.229z
		 M205.064,39.585c-1.617,1.617-3.984,2.695-6.759,2.695h-9.94V10.065h9.94c2.774,0,5.142,1.065,6.759,2.695
		c3.379,3.366,3.445,8.98,3.445,13.373C208.509,30.538,208.443,36.205,205.064,39.585z"/>
</g>
</svg>
