<?xml version="1.0" encoding="utf-8"?>
<!-- Generator: Adobe Illustrator 15.0.0, SVG Export Plug-In . SVG Version: 6.00 Build 0)  -->
<!DOCTYPE svg PUBLIC "-//W3C//DTD SVG 1.1//EN" "http://www.w3.org/Graphics/SVG/1.1/DTD/svg11.dtd">
<svg version="1.1" id="Layer_1" xmlns="http://www.w3.org/2000/svg" xmlns:xlink="http://www.w3.org/1999/xlink" x="0px" y="0px"
	 width="850.765px" height="292.38px" viewBox="0 0 850.765 292.38" enable-background="new 0 0 850.765 292.38"
	 xml:space="preserve">
<g>
	<g>
		<path fill="#F49B7E" d="M282.888,231.841c-1.342-1.01-3.055-1.249-4.697-1.012c-5.183,0.72-3.982,2.49-7.954,6.644
			c-10.905,11.123-21.553,13.815-32.839,15.399c-46.559,6.549-47.753-29.252-69.131-63.648
			c-4.653-7.498-10.675-14.568-18.116-19.756c38.409-13.311,57.294-49.529,52.636-82.68c-4.762-33.857-33.914-62.131-84.929-54.958
			c-51.021,7.172-77.98,47.403-72.923,83.377c2.018,14.34,9.511,28.391,22.644,38.294c1.38,1.244,3.358,1.686,5.005,1.454
			c3.996-0.56,6.822-4.313,6.298-8.078c-0.627-4.465-10.992-11.644-14.499-17.858c-2.842-4.875-4.547-10.156-5.335-15.799
			c-3.867-27.505,16.592-61.07,60.791-67.285c44.677-6.276,65.302,17.677,68.848,42.832c4.091,29.158-14.696,64.401-57.485,70.419
			c-4.239,0.6-8.33,0.452-13.032,1.112c-3.524,0.494-6.655,3.813-6.093,7.812c0.524,3.765,3.271,6.255,6.865,6.228
			c40.594,0.526,41.406,42.132,64.377,72.475c10.604,14.094,28.077,24.104,56.056,20.17c16.933-2.372,27.035-4.953,45.844-25.396
			c0.977-1.573,1.249-3.055,1.015-4.699C285.931,234.772,284.726,233.019,282.888,231.841z"/>
		<path fill="#F49B7E" d="M579.146,17.251c4.702-0.666,7.938-4.955,7.239-9.894c-0.655-4.7-4.953-7.936-9.65-7.27
			c-4.942,0.69-8.172,4.981-7.512,9.684C569.916,14.713,574.209,17.941,579.146,17.251z"/>
		<path fill="#F49B7E" d="M131.884,84.611c2.029-2.931-4.65-5.82-7.945-5.359c-15.52,2.182-22.229,29.498-28.595,52.454
			c-9.715,34.931-17.906,79.002-22.115,98.537c-8.722,40.308-21.596,45.95-33.352,47.601c-13.637,1.918-22.251-3.104-27.174-9.132
			c-1.476-1.941-3.99-2.79-6.582-2.425c-3.764,0.526-6.584,4.285-6.058,8.044c1.751,12.459,25.107,19.971,41.799,17.622
			c27.981-3.936,38.701-23.181,53.001-95.446c6.388-33.027,16.218-75.644,25.971-94.994
			C120.835,101.512,124.479,95.329,131.884,84.611z"/>
		<path fill="#F49B7E" d="M664.375,129C664.156,128.942,664.059,129.154,664.375,129L664.375,129z"/>
		<path fill="#F49B7E" d="M850.707,70.294c-0.397-2.822-2.367-4.937-5.122-5.752c-1.009-0.337-1.979-0.442-2.924-0.312
			c-2.82,0.397-5.177,2.41-5.989,5.162c-9.269,31.273-23.565,43.828-32.971,45.151c-5.411,0.761-8.221-2.201-8.82-6.431
			c-0.622-4.465,7.135-36.249,9.955-48.634c1.795-7.687,2.308-14.229,1.489-20.113c-2.684-19.045-18.65-25.187-32.048-23.305
			c-7.528,1.058-15.427,4.568-22.388,9.618c-1.14-2.955-3.884-5.448-7.883-4.889c-2.814,0.398-4.937,2.377-5.717,5.365
			l-14.657,58.64c-0.027,0.089-0.065,0.165-0.087,0.256l0.021,0.005l-11.68,46.709c-0.338,1.008-0.201,1.944-0.07,2.888
			c0.464,3.288,3.812,6.653,8.046,6.059c2.82-0.396,5.139-2.643,5.957-5.395l18.776-76.242l0.572-1.042
			c5.406-16.104,20.042-26.313,31.083-27.864c10.349-1.457,14.969,4.125,15.961,11.183c1.059,7.522-6.158,34.672-10.768,56.424
			c-1.053,4.458-1.195,8.559-0.666,12.32c1.647,11.754,11.974,20.373,24.902,18.558c16.692-2.351,34.361-19.937,44.721-55.437
			C850.734,72.21,850.844,71.232,850.707,70.294z"/>
		<path fill="#F49B7E" d="M650.868,33.647c-29.189,4.1-49.482,36.759-48.915,67.948c-0.006,0.024-0.021,0.041-0.027,0.065
			c-8.668,28.795-24.487,44.201-35.534,45.757c-4.937,0.69-8.728-0.69-9.917-9.156c-1.32-9.406,4.124-26.954,11.243-56.484
			c7.086-29.771,6.911-27.589,6.649-29.471c-0.496-3.528-3.573-6.69-8.046-6.059c-5.172,0.729-5.177,2.407-7.959,13.343
			c-5.281,21.867-8.908,37.307-11.385,48.464c-0.485,0.666-0.9,1.391-1.141,2.212c-9.273,31.274-23.576,43.83-32.98,45.15
			c-5.4,0.764-8.221-2.198-8.815-6.431c-0.628-4.465,7.135-36.247,9.95-48.631c1.794-7.688,2.312-14.229,1.494-20.113
			c-2.684-19.043-18.646-25.189-32.054-23.306c-7.517,1.06-15.421,4.568-22.382,9.617c-1.135-2.956-3.884-5.444-7.877-4.885
			c-2.826,0.396-4.947,2.375-5.723,5.361l-14.271,57.099c-0.3,0.498-0.562,1.023-0.736,1.597
			c-4.305,15.463-10.404,26.634-16.802,34.006c-5.155,6.004-10.774,10.387-17.582,11.347c-6.59,0.922-10.103-3.617-11.03-10.201
			c-0.562-3.993-0.147-9.573,1.517-16.516c4.031-15.674,16.201-65.576,16.201-65.576c0.911-3.722-1.56-7.694-5.291-8.604
			c-3.955-0.885-7.687,1.556-8.608,5.285c0,0-0.78,2.988-14.167,57.857c-5.248,20.638-21.635,50.755-41.807,45.437
			c-13.07-3.38-12.721-19.055-10.599-29.736c0.256-0.9,0.54-1.769,0.774-2.691c0.229-0.686,0.306-1.349,0.316-2.003
			c14.309-55.892,14.483-56.425,14.483-56.425c0.917-3.722-1.32-7.726-5.084-8.872c-3.726-0.916-7.724,1.323-8.635,5.053
			c0,0-8.03,29.894-15.04,58.454c-0.333,1.311-0.616,2.661-0.873,4.027c-8.319,26.625-26.992,40.649-43.602,42.984
			c-15.285,2.149-29.272-5.236-31.879-23.813c-0.294-2.114-0.393-4.498-0.491-6.888c4.37,0.35,8.428,0.254,12.438-0.305
			c29.85-4.198,51.534-32.418,48.637-53.113c-1.92-13.635-13.594-19.91-29.108-17.728c-25.868,3.639-50.672,43.81-45.582,80.016
			c2.28,16.224,11.286,27.423,24.067,33.061c7.381,3.035,15.678,4.034,23.898,2.877c15.754-2.215,31.847-11.832,43.356-28.224
			c2.619,6.811,7.168,12.432,14.298,15.328c14.761,6.074,34.088,0.24,49.368-18.924c3.808,10.008,14.543,14.734,24.417,13.346
			c8.161-1.143,14.958-4.85,20.871-10.225c0.022,0.19,0.049,0.382,0.077,0.572c0.458,3.287,3.802,6.649,8.041,6.061
			c2.821-0.398,5.146-2.646,5.958-5.395l18.771-76.244l0.578-1.042c5.406-16.104,20.036-26.315,31.088-27.864
			c10.343-1.459,14.969,4.126,15.956,11.18c1.059,7.525-6.153,34.672-10.768,56.427c-1.059,4.457-1.2,8.558-0.671,12.321
			c1.652,11.753,11.974,20.372,24.907,18.556c10.113-1.424,20.576-8.482,29.561-21.683c4.146,9.968,13.224,15.19,23.74,13.71
			l0.229-0.036c14.003-1.966,28.388-14.351,39.02-35.267c7.583,16.495,22.644,27.564,42.232,24.81
			c10.349-1.451,20.13-6.904,27.897-14.711c0,0,3.409-3.136,9.978-12.67l2.089-3.888c6.819-12.944,10.305-29.019,8.09-44.78
			C694.05,49.156,675.077,30.241,650.868,33.647z M267.553,102.378c9.945-2.597,12.547,3.996,13.108,7.992
			c1.822,12.934-15.045,31.125-35.97,34.068c-2.826,0.397-5.679,0.552-8.597,0.247C241.288,120.217,253.441,106.04,267.553,102.378z
			 M673.812,118.416c-6.476,8.477-8.8,10.273-9.438,10.584c0.044,0.011,0.093,0.033,0.142,0.069
			c-6.322,4.484-10.757,7.029-16.872,7.89c-14.347,2.017-27.984-8.059-30.963-29.217c-4.168-29.627,16.42-57.214,36.167-59.99
			c15.279-2.149,28.006,9.97,30.723,29.249C685.622,91.578,681.553,107.012,673.812,118.416z"/>
		<path fill="#F49B7E" d="M266.332,65.906L304.5,40.523c7.604-4.942-0.262-17.043-7.687-11.826l-38.212,25.616
			C250.577,58.92,259.322,71.459,266.332,65.906z"/>
	</g>
</g>
</svg>
