<?xml version="1.0" encoding="utf-8"?>
<!-- Generator: Adobe Illustrator 15.0.0, SVG Export Plug-In . SVG Version: 6.00 Build 0)  -->
<!DOCTYPE svg PUBLIC "-//W3C//DTD SVG 1.1//EN" "http://www.w3.org/Graphics/SVG/1.1/DTD/svg11.dtd">
<svg version="1.1" id="Layer_1" xmlns="http://www.w3.org/2000/svg" xmlns:xlink="http://www.w3.org/1999/xlink" x="0px" y="0px"
	 width="26.748px" height="26.748px" viewBox="0 0 26.748 26.748" enable-background="new 0 0 26.748 26.748" xml:space="preserve">
<path fill="#FFFFFF" d="M25.271,0H1.476C0.66,0-0.001,0.661-0.001,1.476v23.795c0,0.815,0.661,1.477,1.477,1.477h12.811V16.389H10.8
	v-4.037h3.486V9.375c0-3.455,2.11-5.336,5.192-5.336c1.477,0,2.745,0.109,3.115,0.159v3.61L20.455,7.81c-1.676,0-2,0.796-2,1.965
	v2.577h3.998l-0.521,4.037h-3.477v10.358h6.816c0.814,0,1.477-0.661,1.477-1.477V1.476C26.748,0.661,26.085,0,25.271,0"/>
</svg>
